<?xml version="1.0" encoding="UTF-8"?>
<!DOCTYPE svg PUBLIC "-//W3C//DTD SVG 1.1//EN" "http://www.w3.org/Graphics/SVG/1.1/DTD/svg11.dtd">
<!-- Creator: CorelDRAW 2018 (64-Bit) -->
<svg xmlns="http://www.w3.org/2000/svg" xml:space="preserve" width="184px" height="258px" version="1.1" style="shape-rendering:geometricPrecision; text-rendering:geometricPrecision; image-rendering:optimizeQuality; fill-rule:evenodd; clip-rule:evenodd"
viewBox="0 0 1.46 2.05"
 xmlns:xlink="http://www.w3.org/1999/xlink">
 <defs>
  <style type="text/css">
   <![CDATA[
    .fil0 {fill:#E3E2E1}
   ]]>
  </style>
 </defs>
 <g id="图层_x0020_1">
  <metadata id="CorelCorpID_0Corel-Layer"/>
  <g id="_2702246754352">
   <rect class="fil0" width="0.2" height="2.04"/>
   <rect class="fil0" x="0.39" width="0.07" height="2.04"/>
   <path class="fil0" d="M0.46 1.02c0.14,-0.08 0.18,-0.18 0.25,-0.36 0.12,0.22 0.31,0.17 0.35,0.16 0.03,-0.01 0.05,-0.03 0.11,-0.13 0.07,-0.1 0.1,-0.46 -0.06,-0.57 -0.15,-0.1 -0.27,-0.05 -0.33,-0.02 -0.05,0.03 -0.08,0.09 -0.08,0.1 0,0.01 0.02,0.01 0.03,0.01 0.03,-0.01 0.16,-0.03 0.17,0.09 0,0.12 -0.08,0.14 -0.14,0.14 -0.07,0 -0.18,-0.05 -0.12,-0.24 0.07,-0.19 0.26,-0.2 0.41,-0.2 0.14,0 0.41,0.13 0.41,0.47 0,0.34 -0.27,0.45 -0.39,0.45 -0.13,0 -0.22,-0.02 -0.28,-0.07 -0.02,0.06 -0.04,0.14 -0.1,0.17 0.06,0.04 0.08,0.12 0.1,0.17 0.06,-0.04 0.15,-0.07 0.28,-0.07 0.12,0 0.39,0.12 0.39,0.46 0,0.34 -0.27,0.47 -0.41,0.47 -0.15,0 -0.34,-0.01 -0.41,-0.2 -0.06,-0.19 0.05,-0.24 0.12,-0.24 0.06,0 0.14,0.02 0.14,0.14 -0.01,0.12 -0.14,0.09 -0.17,0.09 -0.01,0 -0.03,0 -0.03,0 0,0.02 0.03,0.08 0.08,0.11 0.06,0.03 0.18,0.08 0.33,-0.03 0.16,-0.1 0.13,-0.47 0.06,-0.57 -0.06,-0.1 -0.08,-0.11 -0.11,-0.12 -0.04,-0.02 -0.23,-0.07 -0.35,0.15 -0.07,-0.17 -0.11,-0.27 -0.25,-0.36z"/>
  </g>
 </g>
</svg>
