<?xml version="1.0" encoding="UTF-8"?>
<!DOCTYPE svg PUBLIC "-//W3C//DTD SVG 1.1//EN" "http://www.w3.org/Graphics/SVG/1.1/DTD/svg11.dtd">
<!-- Creator: CorelDRAW 2018 (64-Bit) -->
<svg xmlns="http://www.w3.org/2000/svg" xml:space="preserve" width="171px" height="210px" version="1.1" style="shape-rendering:geometricPrecision; text-rendering:geometricPrecision; image-rendering:optimizeQuality; fill-rule:evenodd; clip-rule:evenodd"
viewBox="0 0 1.19 1.46"
 xmlns:xlink="http://www.w3.org/1999/xlink">
 <defs>
  <style type="text/css">
   <![CDATA[
    .fil0 {fill:#E3E2E1}
   ]]>
  </style>
 </defs>
 <g id="图层_x0020_1">
  <metadata id="CorelCorpID_0Corel-Layer"/>
  <g id="_2702246752656">
   <path class="fil0" d="M0.18 0.28c-0.04,0.01 -0.07,0.03 -0.08,0 -0.01,-0.02 0.02,-0.09 0.09,-0.14 0.08,-0.06 0.21,-0.1 0.31,-0.05 0.1,0.04 0.18,0.18 0.18,0.35 0.01,0.18 -0.06,0.39 -0.2,0.58 -0.14,0.18 -0.34,0.34 -0.42,0.4 -0.08,0.07 -0.03,0.04 0.06,-0.01 0.1,-0.04 0.25,-0.11 0.39,-0.22 0.15,-0.11 0.3,-0.27 0.37,-0.46 0.06,-0.18 0.04,-0.39 -0.07,-0.54 -0.11,-0.14 -0.32,-0.22 -0.49,-0.18 -0.18,0.05 -0.32,0.22 -0.32,0.36 0,0.14 0.13,0.24 0.23,0.24 0.1,0 0.16,-0.1 0.17,-0.18 0,-0.07 -0.07,-0.12 -0.11,-0.14 -0.05,-0.03 -0.08,-0.02 -0.11,-0.01z"/>
   <circle class="fil0" cx="1.09" cy="0.29" r="0.09"/>
   <circle class="fil0" cx="1.09" cy="0.68" r="0.09"/>
  </g>
 </g>
</svg>
