<?xml version="1.0" encoding="UTF-8"?>
<!DOCTYPE svg PUBLIC "-//W3C//DTD SVG 1.1//EN" "http://www.w3.org/Graphics/SVG/1.1/DTD/svg11.dtd">
<!-- Creator: CorelDRAW 2018 (64-Bit) -->
<svg xmlns="http://www.w3.org/2000/svg" xml:space="preserve" width="152px" height="411px" version="1.1" style="shape-rendering:geometricPrecision; text-rendering:geometricPrecision; image-rendering:optimizeQuality; fill-rule:evenodd; clip-rule:evenodd"
viewBox="0 0 1.06 2.86"
 xmlns:xlink="http://www.w3.org/1999/xlink">
 <defs>
  <style type="text/css">
   <![CDATA[
    .fil0 {fill:#E3E2E1}
   ]]>
  </style>
 </defs>
 <g id="图层_x0020_1">
  <metadata id="CorelCorpID_0Corel-Layer"/>
  <path class="fil0" d="M0.5 0.84c0,-0.02 0,-0.04 0,-0.07 -0.02,-0.1 -0.03,-0.24 0.01,-0.35 0.04,-0.11 0.13,-0.18 0.2,-0.17 0.06,0.01 0.09,0.1 0.06,0.21 -0.04,0.14 -0.17,0.28 -0.27,0.38zm0.29 1.32c0.06,-0.03 0.11,-0.06 0.15,-0.1 0.12,-0.12 0.15,-0.31 0.09,-0.45 -0.07,-0.15 -0.25,-0.26 -0.41,-0.23 -0.02,-0.11 -0.05,-0.21 -0.07,-0.31 0.14,-0.14 0.27,-0.27 0.29,-0.47 0.03,-0.23 -0.06,-0.54 -0.17,-0.59 -0.1,-0.05 -0.22,0.16 -0.25,0.39 -0.02,0.16 0,0.34 0.03,0.5 -0.13,0.12 -0.28,0.26 -0.36,0.41 -0.1,0.19 -0.12,0.4 -0.04,0.56 0.07,0.17 0.24,0.29 0.41,0.32 0.09,0.02 0.18,0.02 0.26,-0.01 0.01,0.03 0.01,0.06 0.02,0.08 0.05,0.26 0.07,0.32 0.05,0.38 -0.02,0.06 -0.07,0.11 -0.12,0.14 -0.05,0.02 -0.11,0.03 -0.16,0.02 -0.06,-0.01 -0.1,-0.03 -0.1,-0.05 0.01,-0.01 0.06,-0.01 0.11,-0.03 0.04,-0.02 0.06,-0.05 0.07,-0.09 0.03,-0.12 -0.08,-0.22 -0.19,-0.2 -0.07,0.01 -0.15,0.07 -0.16,0.17 0,0.09 0.07,0.2 0.19,0.24 0.07,0.03 0.16,0.02 0.23,0 0.05,-0.01 0.1,-0.04 0.14,-0.08 0.08,-0.08 0.07,-0.22 0.02,-0.44 0,-0.05 -0.02,-0.11 -0.03,-0.16zm-0.08 -0.04c-0.05,0.02 -0.11,0.02 -0.19,0.02 -0.08,-0.01 -0.2,-0.04 -0.28,-0.12 -0.08,-0.09 -0.14,-0.23 -0.09,-0.4 0.05,-0.16 0.2,-0.34 0.35,-0.49 0,0.03 0.01,0.06 0.01,0.08 0.02,0.06 0.03,0.12 0.04,0.18 -0.07,0.03 -0.14,0.09 -0.18,0.14 -0.05,0.08 -0.06,0.16 -0.05,0.22 0.01,0.06 0.03,0.11 0.06,0.14 0.03,0.04 0.06,0.07 0.1,0.09 0.04,0.02 0.08,0.04 0.09,0.03 0.01,0 -0.01,-0.03 -0.05,-0.07 -0.05,-0.03 -0.11,-0.09 -0.1,-0.16 0.02,-0.07 0.09,-0.15 0.18,-0.19 0.03,0.18 0.07,0.36 0.11,0.53zm0.07 -0.02c-0.04,-0.18 -0.08,-0.35 -0.12,-0.53 0.1,-0.01 0.19,0.04 0.23,0.11 0.06,0.08 0.05,0.21 0.02,0.29 -0.03,0.06 -0.08,0.1 -0.13,0.13z"/>
 </g>
</svg>
