<?xml version="1.0" encoding="UTF-8"?>
<!DOCTYPE svg PUBLIC "-//W3C//DTD SVG 1.1//EN" "http://www.w3.org/Graphics/SVG/1.1/DTD/svg11.dtd">
<!-- Creator: CorelDRAW (评估版) -->
<svg xmlns="http://www.w3.org/2000/svg" xml:space="preserve" width="38.1923mm" height="38.1923mm" version="1.1" style="shape-rendering:geometricPrecision; text-rendering:geometricPrecision; image-rendering:optimizeQuality; fill-rule:evenodd; clip-rule:evenodd"
viewBox="0 0 70.81 70.81"
 xmlns:xlink="http://www.w3.org/1999/xlink"
 xmlns:xodm="http://www.corel.com/coreldraw/odm/2003">
 <defs>
  <style type="text/css">
   <![CDATA[
    .fil3 {fill:#63AFA8}
    .fil1 {fill:#F0ECDC}
    .fil0 {fill:#FFF9EF}
    .fil2 {fill:#A4A678;fill-rule:nonzero}
   ]]>
  </style>
 </defs>
 <g id="图层_x0020_1">
  <metadata id="CorelCorpID_0Corel-Layer"/>
  <g id="_1502978593648">
   <g>
    <circle class="fil0" cx="35.4" cy="35.4" r="35.4"/>
    <path class="fil1" d="M35.4 4.36c17.14,0 31.04,13.9 31.04,31.04 0,17.14 -13.9,31.04 -31.04,31.04 -17.14,0 -31.04,-13.9 -31.04,-31.04 0,-17.14 13.9,-31.04 31.04,-31.04zm3.53 5.04c11.66,1.57 20.9,10.8 22.47,22.47 1.3,1.66 1.85,2.02 4.6,3.53 -2.75,1.51 -3.3,1.86 -4.6,3.53 -1.57,11.66 -10.8,20.9 -22.47,22.47 -1.66,1.3 -2.02,1.85 -3.53,4.6 -1.51,-2.75 -1.86,-3.3 -3.53,-4.6 -11.66,-1.57 -20.9,-10.8 -22.47,-22.47 -1.3,-1.66 -1.85,-2.02 -4.6,-3.53 2.75,-1.51 3.3,-1.86 4.6,-3.53 1.57,-11.66 10.8,-20.9 22.47,-22.47 1.66,-1.3 2.02,-1.85 3.53,-4.6 1.51,2.75 1.86,3.3 3.53,4.6z"/>
   </g>
   <path class="fil2" d="M32.11 48.1c0.09,0 0.14,0.05 0.15,0.15l0 3.04 0 5.11c0.02,0.46 0.12,0.75 0.31,0.88 0.19,0.13 0.42,0.18 0.69,0.15 0.24,-0.03 0.43,-0.04 0.56,-0.05 0.11,0.01 0.17,0.08 0.17,0.22 0,0.14 -0.05,0.25 -0.17,0.34 -0.53,0.5 -1.05,0.75 -1.56,0.75l-0.24 0c-1.23,0 -1.84,-0.75 -1.84,-2.25l0 -6.44c0,-0.44 -0.28,-0.84 -0.83,-1.19l0 -0.04c-0.01,-0.12 0.06,-0.2 0.19,-0.23 1.49,-0.29 2.35,-0.44 2.57,-0.46zm4.92 9.13c0.32,0 0.59,-0.09 0.81,-0.27 0.21,-0.18 0.32,-0.43 0.32,-0.73l0 -1.41c-0.15,0.03 -0.32,0.06 -0.5,0.11 -0.18,0.05 -0.35,0.11 -0.51,0.18 -0.32,0.12 -0.56,0.29 -0.72,0.51 -0.16,0.22 -0.24,0.47 -0.24,0.74 0,0.28 0.07,0.5 0.22,0.65 0.15,0.15 0.36,0.22 0.62,0.22zm0.38 -6.15c1.39,0 2.27,0.53 2.66,1.58 0.09,0.22 0.14,0.5 0.15,0.83l0 2.2c0,1.39 0.25,2.16 0.74,2.33 0.09,0 0.13,0.03 0.13,0.09l0 0.05c0,0.05 -0.04,0.1 -0.13,0.15l-1.09 0c-0.64,0 -1.07,-0.33 -1.29,-1l0 -0.04 -0.05 0c-0.39,0.72 -1.03,1.09 -1.92,1.09 -1.62,-0.01 -2.43,-0.66 -2.43,-1.94 0.01,-1.35 1.32,-2.23 3.95,-2.62l0 -0.5c-0.01,-0.73 -0.3,-1.13 -0.88,-1.19l-0.24 0c-0.62,0.11 -0.95,0.52 -0.98,1.23 0,0.14 -0.05,0.21 -0.15,0.2l-1.24 0c-0.07,0.01 -0.12,-0.04 -0.14,-0.14l0 -0.26c0,-0.95 0.59,-1.59 1.78,-1.93 0.33,-0.09 0.71,-0.14 1.14,-0.14z"/>
   <ellipse class="fil3" cx="35.4" cy="27.8" rx="11.51" ry="10.17"/>
   <circle class="fil0" transform="matrix(0.206738 0.00574355 0.0496078 0.215333 35.4028 27.7978)" r="35.32"/>
   <rect class="fil3" x="20.9" y="36.06" width="29" height="2.94" rx="1.47" ry="1.47"/>
   <rect class="fil3" x="20.9" y="42.93" width="29" height="2.94" rx="1.47" ry="1.47"/>
   <rect class="fil3" x="20.9" y="16.46" width="29" height="2.94" rx="1.47" ry="1.47"/>
  </g>
 </g>
</svg>
