<?xml version="1.0" encoding="UTF-8"?>
<!DOCTYPE svg PUBLIC "-//W3C//DTD SVG 1.1//EN" "http://www.w3.org/Graphics/SVG/1.1/DTD/svg11.dtd">
<!-- Creator: CorelDRAW (评估版) -->
<svg xmlns="http://www.w3.org/2000/svg" xml:space="preserve" width="38.1923mm" height="38.1923mm" version="1.1" style="shape-rendering:geometricPrecision; text-rendering:geometricPrecision; image-rendering:optimizeQuality; fill-rule:evenodd; clip-rule:evenodd"
viewBox="0 0 75.13 75.13"
 xmlns:xlink="http://www.w3.org/1999/xlink"
 xmlns:xodm="http://www.corel.com/coreldraw/odm/2003">
 <defs>
  <style type="text/css">
   <![CDATA[
    .fil3 {fill:#63AFA8}
    .fil1 {fill:#F0ECDC}
    .fil0 {fill:#FFF9EF}
    .fil2 {fill:#A4A678;fill-rule:nonzero}
   ]]>
  </style>
 </defs>
 <g id="图层_x0020_1">
  <metadata id="CorelCorpID_0Corel-Layer"/>
  <g id="_1466949126368">
   <g>
    <circle class="fil0" cx="37.57" cy="37.57" r="37.57"/>
    <path class="fil1" d="M37.57 4.63c18.19,0 32.94,14.75 32.94,32.94 0,18.19 -14.75,32.94 -32.94,32.94 -18.19,0 -32.94,-14.75 -32.94,-32.94 0,-18.19 14.75,-32.94 32.94,-32.94zm3.74 5.35c12.38,1.66 22.17,11.46 23.84,23.84 1.38,1.77 1.96,2.15 4.88,3.74 -2.92,1.6 -3.5,1.98 -4.88,3.74 -1.66,12.38 -11.46,22.17 -23.84,23.84 -1.77,1.38 -2.15,1.96 -3.74,4.88 -1.6,-2.92 -1.98,-3.5 -3.74,-4.88 -12.38,-1.66 -22.17,-11.46 -23.84,-23.84 -1.38,-1.77 -1.96,-2.15 -4.88,-3.74 2.92,-1.6 3.5,-1.98 4.88,-3.74 1.66,-12.38 11.46,-22.17 23.84,-23.84 1.77,-1.38 2.15,-1.96 3.74,-4.88 1.6,2.92 1.98,3.5 3.74,4.88z"/>
   </g>
   <path class="fil2" d="M34.62 54.49l0.1 0c0.83,0.01 1.43,0.33 1.79,0.96 0.52,-0.63 1.24,-0.94 2.16,-0.94l0.11 0c1.2,0 2.01,0.47 2.41,1.42 0.07,0.27 0.1,0.5 0.1,0.68l-0.01 4.38c-0.05,0.65 -0.52,1.02 -1.44,1.11 -0.22,0.01 -0.42,0.01 -0.62,0 -0.07,-0.02 -0.1,-0.07 -0.1,-0.16l0.01 -4.96c0.01,-0.81 -0.33,-1.24 -1.03,-1.27 -0.47,0.04 -0.84,0.3 -1.11,0.8l-0.01 4.91c0.03,0.42 -0.14,0.65 -0.49,0.68l-1.48 0c-0.07,-0.01 -0.1,-0.07 -0.1,-0.18l0.01 -4.9c0.01,-0.85 -0.32,-1.28 -0.99,-1.3 -0.51,0.02 -0.9,0.22 -1.17,0.6l-0.01 5.02c0.04,0.5 -0.15,0.75 -0.56,0.75 -0.94,0 -1.44,0 -1.51,0 -0.09,-0.02 -0.14,-0.08 -0.16,-0.19l0.03 -5.32c0,-0.48 -0.3,-0.89 -0.9,-1.22 -0.01,-0.15 0.09,-0.25 0.3,-0.28 1.02,-0.23 1.86,-0.4 2.51,-0.52 0.12,0 0.17,0.07 0.15,0.2l0 0.56c0.47,-0.55 1.14,-0.83 2.01,-0.83zm8.34 -2.37c0,0.31 0.1,0.58 0.28,0.81 0.25,0.26 0.56,0.39 0.94,0.39 0.35,0 0.65,-0.13 0.89,-0.39 0.22,-0.24 0.33,-0.51 0.34,-0.81 -0.01,-0.32 -0.12,-0.59 -0.34,-0.83 -0.24,-0.27 -0.54,-0.41 -0.89,-0.42 -0.33,0.01 -0.61,0.12 -0.84,0.34 -0.25,0.24 -0.38,0.55 -0.38,0.91zm2.36 2.28c0.07,0.03 0.11,0.07 0.11,0.12l0 6.25c0.03,0.85 -0.59,1.27 -1.86,1.27 -0.31,-0.01 -0.46,-0.06 -0.46,-0.16l0 -4.88c0,-0.84 -0.33,-1.42 -0.98,-1.72 -0.02,-0.17 0.08,-0.27 0.28,-0.3 1.66,-0.36 2.63,-0.56 2.9,-0.58z"/>
   <ellipse class="fil3" cx="38.32" cy="32.98" rx="12.21" ry="10.79"/>
   <circle class="fil0" transform="matrix(0.206738 0.00574355 0.0496078 0.215333 38.3157 32.9832)" r="37.48"/>
   <rect class="fil3" x="22.93" y="41.75" width="30.77" height="3.12" rx="1.56" ry="1.56"/>
   <rect class="fil3" x="22.93" y="31.42" width="30.77" height="3.12" rx="1.56" ry="1.56"/>
  </g>
 </g>
</svg>
