<?xml version="1.0" encoding="UTF-8"?>
<!DOCTYPE svg PUBLIC "-//W3C//DTD SVG 1.1//EN" "http://www.w3.org/Graphics/SVG/1.1/DTD/svg11.dtd">
<!-- Creator: CorelDRAW (评估版) -->
<svg xmlns="http://www.w3.org/2000/svg" xml:space="preserve" width="38.1923mm" height="38.1923mm" version="1.1" style="shape-rendering:geometricPrecision; text-rendering:geometricPrecision; image-rendering:optimizeQuality; fill-rule:evenodd; clip-rule:evenodd"
viewBox="0 0 79.99 79.99"
 xmlns:xlink="http://www.w3.org/1999/xlink"
 xmlns:xodm="http://www.corel.com/coreldraw/odm/2003">
 <defs>
  <style type="text/css">
   <![CDATA[
    .fil3 {fill:#63AFA8}
    .fil1 {fill:#F0ECDC}
    .fil0 {fill:#FFF9EF}
    .fil2 {fill:#A4A678;fill-rule:nonzero}
   ]]>
  </style>
 </defs>
 <g id="图层_x0020_1">
  <metadata id="CorelCorpID_0Corel-Layer"/>
  <g id="_1467476054064">
   <g>
    <circle class="fil0" cx="39.99" cy="39.99" r="39.99"/>
    <path class="fil1" d="M39.99 4.93c19.37,0 35.06,15.7 35.06,35.06 0,19.37 -15.7,35.06 -35.06,35.06 -19.37,0 -35.06,-15.7 -35.06,-35.06 0,-19.37 15.7,-35.06 35.06,-35.06zm3.99 5.7c13.18,1.77 23.61,12.2 25.38,25.38 1.47,1.88 2.09,2.28 5.2,3.99 -3.11,1.7 -3.73,2.11 -5.2,3.99 -1.77,13.18 -12.2,23.61 -25.38,25.38 -1.88,1.47 -2.28,2.09 -3.99,5.2 -1.7,-3.11 -2.11,-3.73 -3.99,-5.2 -13.18,-1.77 -23.61,-12.2 -25.38,-25.38 -1.47,-1.88 -2.09,-2.28 -5.2,-3.99 3.11,-1.7 3.73,-2.11 5.2,-3.99 1.77,-13.18 12.2,-23.61 25.38,-25.38 1.88,-1.47 2.28,-2.09 3.99,-5.2 1.7,3.11 2.11,3.73 3.99,5.2z"/>
   </g>
   <path class="fil2" d="M37.32 58.34c1.16,-0.02 1.79,0.77 1.89,2.37l0 0.22c0,0.11 -0.05,0.17 -0.16,0.19l-1.34 0c-0.08,-0.01 -0.12,-0.07 -0.12,-0.19 -0.07,-0.53 -0.23,-0.84 -0.49,-0.92l-0.17 -0.01c-0.41,0 -0.9,0.41 -1.44,1.23 -0.07,0.13 -0.1,0.24 -0.1,0.33l0 2.34c0,1.34 -0.55,2.17 -1.65,2.48 -0.07,0.03 -0.25,0.05 -0.53,0.06 -0.07,-0.02 -0.11,-0.07 -0.12,-0.14l0 -5.49c0,-0.64 -0.3,-1.14 -0.9,-1.5 0.01,-0.17 0.09,-0.27 0.25,-0.3 1.54,-0.37 2.44,-0.56 2.69,-0.59 0.09,0 0.12,0.05 0.1,0.16l0 1.72 0.04 0c0.57,-1.3 1.25,-1.94 2.05,-1.93zm6.02 1.01c-0.34,0 -0.64,0.18 -0.9,0.53 -0.26,0.35 -0.39,0.95 -0.39,1.78l2.87 0c0.03,-0.73 -0.11,-1.3 -0.42,-1.71 -0.31,-0.41 -0.7,-0.61 -1.17,-0.6zm0.01 -1.08c1.88,0 3.13,0.87 3.75,2.61 0.18,0.57 0.24,1.17 0.17,1.8 0.01,0.21 -0.08,0.32 -0.26,0.32l-4.92 0.03c-0.07,-0.02 -0.09,0.02 -0.07,0.12 0.01,1.04 0.53,1.67 1.57,1.88 1.04,0.21 2.02,-0.01 2.93,-0.66 0.03,-0.03 0.06,-0.03 0.1,-0.01 0.12,0.09 0.25,0.22 0.39,0.39 0.06,0.06 0.07,0.11 0.03,0.16 -1,1.13 -2.23,1.65 -3.68,1.57 -1.8,-0.07 -3.02,-0.96 -3.67,-2.67 -0.09,-0.39 -0.13,-0.75 -0.13,-1.07l0 -0.56c0.31,-2.57 1.57,-3.87 3.78,-3.9z"/>
   <ellipse class="fil3" cx="40.79" cy="35.11" rx="13" ry="11.49"/>
   <circle class="fil0" transform="matrix(0.206738 0.00574355 0.0496078 0.215333 40.7913 35.1143)" r="39.9"/>
   <rect class="fil3" x="24.41" y="44.45" width="32.76" height="3.32" rx="1.66" ry="1.66"/>
  </g>
 </g>
</svg>
