<?xml version="1.0" encoding="UTF-8"?>
<!DOCTYPE svg PUBLIC "-//W3C//DTD SVG 1.1//EN" "http://www.w3.org/Graphics/SVG/1.1/DTD/svg11.dtd">
<!-- Creator: CorelDRAW (评估版) -->
<svg xmlns="http://www.w3.org/2000/svg" xml:space="preserve" width="38.1923mm" height="38.1923mm" version="1.1" style="shape-rendering:geometricPrecision; text-rendering:geometricPrecision; image-rendering:optimizeQuality; fill-rule:evenodd; clip-rule:evenodd"
viewBox="0 0 70.81 70.81"
 xmlns:xlink="http://www.w3.org/1999/xlink"
 xmlns:xodm="http://www.corel.com/coreldraw/odm/2003">
 <defs>
  <style type="text/css">
   <![CDATA[
    .fil3 {fill:#63AFA8}
    .fil1 {fill:#F0ECDC}
    .fil0 {fill:#FFF9EF}
    .fil2 {fill:#A4A678;fill-rule:nonzero}
   ]]>
  </style>
 </defs>
 <g id="图层_x0020_1">
  <metadata id="CorelCorpID_0Corel-Layer"/>
  <g id="_1503620388576">
   <g>
    <circle class="fil0" cx="35.4" cy="35.4" r="35.4"/>
    <path class="fil1" d="M35.4 4.36c17.14,0 31.04,13.9 31.04,31.04 0,17.14 -13.9,31.04 -31.04,31.04 -17.14,0 -31.04,-13.9 -31.04,-31.04 0,-17.14 13.9,-31.04 31.04,-31.04zm3.53 5.04c11.66,1.57 20.9,10.8 22.47,22.47 1.3,1.66 1.85,2.02 4.6,3.53 -2.75,1.51 -3.3,1.86 -4.6,3.53 -1.57,11.66 -10.8,20.9 -22.47,22.47 -1.66,1.3 -2.02,1.85 -3.53,4.6 -1.51,-2.75 -1.86,-3.3 -3.53,-4.6 -11.66,-1.57 -20.9,-10.8 -22.47,-22.47 -1.3,-1.66 -1.85,-2.02 -4.6,-3.53 2.75,-1.51 3.3,-1.86 4.6,-3.53 1.57,-11.66 10.8,-20.9 22.47,-22.47 1.66,-1.3 2.02,-1.85 3.53,-4.6 1.51,2.75 1.86,3.3 3.53,4.6z"/>
   </g>
   <path class="fil2" d="M32.98 50.95c0.17,-0.03 0.26,0.08 0.28,0.33 0.1,0.84 0.17,1.53 0.2,2.1 -0.01,0.13 -0.06,0.2 -0.15,0.2l-0.5 0c-0.44,-0.83 -1.06,-1.24 -1.84,-1.25 -0.7,-0.02 -1.05,0.19 -1.05,0.61 0.01,0.49 0.78,1.02 2.33,1.58 0.95,0.35 1.44,0.97 1.47,1.87 0,1.41 -0.98,2.11 -2.95,2.11 -1.38,-0.05 -2.4,-0.54 -3.07,-1.46 -0.03,-0.06 -0.03,-0.12 0.01,-0.18l0.37 -0.38c0.07,-0.05 0.14,-0.04 0.2,0.04 0.65,0.51 1.21,0.81 1.67,0.88 0.46,0.09 0.88,0.1 1.25,0.05 0.39,-0.07 0.59,-0.27 0.58,-0.62 -0,-0.35 -0.86,-0.91 -2.56,-1.68 -1,-0.62 -1.43,-1.33 -1.3,-2.12 0.14,-1.06 0.91,-1.65 2.29,-1.76 0.67,-0.04 1.31,0.07 1.92,0.35 0.49,0.12 0.77,-0.1 0.84,-0.66zm1.73 4c0,-0.55 0.08,-1.04 0.25,-1.5 0.17,-0.45 0.41,-0.84 0.73,-1.16 0.32,-0.32 0.71,-0.58 1.17,-0.76 0.46,-0.18 0.98,-0.27 1.57,-0.27 0.59,0 1.11,0.09 1.57,0.27 0.46,0.18 0.85,0.44 1.17,0.76 0.32,0.32 0.56,0.71 0.73,1.16 0.17,0.45 0.25,0.95 0.25,1.5 0,0.55 -0.08,1.04 -0.25,1.5 -0.17,0.45 -0.41,0.84 -0.73,1.16 -0.32,0.32 -0.71,0.58 -1.17,0.76 -0.46,0.18 -0.98,0.27 -1.57,0.27 -0.59,0 -1.11,-0.09 -1.57,-0.27 -0.46,-0.18 -0.85,-0.44 -1.17,-0.76 -0.32,-0.32 -0.56,-0.71 -0.73,-1.16 -0.17,-0.45 -0.25,-0.95 -0.25,-1.5zm2.17 0c0,0.81 0.14,1.44 0.41,1.9 0.27,0.46 0.65,0.68 1.14,0.68 0.49,0 0.86,-0.23 1.14,-0.68 0.27,-0.46 0.41,-1.09 0.41,-1.9 0,-0.81 -0.14,-1.44 -0.41,-1.9 -0.27,-0.46 -0.65,-0.68 -1.14,-0.68 -0.49,0 -0.86,0.23 -1.14,0.68 -0.27,0.46 -0.41,1.09 -0.41,1.9z"/>
   <ellipse class="fil3" cx="35.59" cy="31.02" rx="11.51" ry="10.17"/>
   <circle class="fil0" transform="matrix(0.206738 0.00574355 0.0496078 0.215333 35.5869 31.0173)" r="35.32"/>
   <rect class="fil3" x="21.09" y="29.55" width="29" height="2.94" rx="1.47" ry="1.47"/>
   <rect class="fil3" x="21.09" y="39.28" width="29" height="2.94" rx="1.47" ry="1.47"/>
   <rect class="fil3" x="21.09" y="19.68" width="29" height="2.94" rx="1.47" ry="1.47"/>
  </g>
 </g>
</svg>
