<?xml version="1.0" encoding="UTF-8"?>
<!DOCTYPE svg PUBLIC "-//W3C//DTD SVG 1.1//EN" "http://www.w3.org/Graphics/SVG/1.1/DTD/svg11.dtd">
<!-- Creator: CorelDRAW (评估版) -->
<svg xmlns="http://www.w3.org/2000/svg" xml:space="preserve" width="38.1923mm" height="38.1923mm" version="1.1" style="shape-rendering:geometricPrecision; text-rendering:geometricPrecision; image-rendering:optimizeQuality; fill-rule:evenodd; clip-rule:evenodd"
viewBox="0 0 79.99 79.99"
 xmlns:xlink="http://www.w3.org/1999/xlink"
 xmlns:xodm="http://www.corel.com/coreldraw/odm/2003">
 <defs>
  <style type="text/css">
   <![CDATA[
    .fil3 {fill:#63AFA8}
    .fil1 {fill:#F0ECDC}
    .fil0 {fill:#FFF9EF}
    .fil2 {fill:#A4A678;fill-rule:nonzero}
   ]]>
  </style>
 </defs>
 <g id="图层_x0020_1">
  <metadata id="CorelCorpID_0Corel-Layer"/>
  <g id="_1503625124064">
   <g>
    <circle class="fil0" cx="39.99" cy="39.99" r="39.99"/>
    <path class="fil1" d="M39.99 4.93c19.37,0 35.06,15.7 35.06,35.06 0,19.37 -15.7,35.06 -35.06,35.06 -19.37,0 -35.06,-15.7 -35.06,-35.06 0,-19.37 15.7,-35.06 35.06,-35.06zm3.99 5.7c13.18,1.77 23.61,12.2 25.38,25.38 1.47,1.88 2.09,2.28 5.2,3.99 -3.11,1.7 -3.73,2.11 -5.2,3.99 -1.77,13.18 -12.2,23.61 -25.38,25.38 -1.88,1.47 -2.28,2.09 -3.99,5.2 -1.7,-3.11 -2.11,-3.73 -3.99,-5.2 -13.18,-1.77 -23.61,-12.2 -25.38,-25.38 -1.47,-1.88 -2.09,-2.28 -5.2,-3.99 3.11,-1.7 3.73,-2.11 5.2,-3.99 1.77,-13.18 12.2,-23.61 25.38,-25.38 1.88,-1.47 2.28,-2.09 3.99,-5.2 1.7,3.11 2.11,3.73 3.99,5.2z"/>
   </g>
   <path class="fil2" d="M38.71 54.2l0.13 0c0.1,0.02 0.15,0.07 0.17,0.16l0 11.32c0,0.3 -0.15,0.45 -0.46,0.45l-4.1 0c-1.35,0 -2.31,-0.8 -2.9,-2.41 -0.11,-0.52 -0.16,-0.95 -0.16,-1.28l0 -0.74c0,-1.76 0.69,-2.95 2.06,-3.58 0.42,-0.14 0.85,-0.22 1.29,-0.22 0.79,0 1.42,0.22 1.91,0.66l0 -1.85c0,-0.68 -0.32,-1.23 -0.95,-1.63l0 -0.04c0,-0.18 0.1,-0.28 0.29,-0.3l2.73 -0.53zm-4.92 7.95c0,1.82 0.54,2.73 1.63,2.73l1.11 0c0.08,0 0.12,-0.03 0.12,-0.1l0 -5c-0.29,-0.4 -0.72,-0.61 -1.28,-0.61l-0.17 0c-0.93,0 -1.4,0.99 -1.4,2.97zm6.5 -0.07c0,-0.62 0.09,-1.18 0.28,-1.69 0.19,-0.51 0.46,-0.95 0.82,-1.31 0.36,-0.37 0.8,-0.65 1.32,-0.86 0.52,-0.21 1.11,-0.31 1.78,-0.31 0.66,0 1.26,0.1 1.78,0.31 0.52,0.21 0.96,0.49 1.32,0.86 0.36,0.37 0.64,0.8 0.82,1.31 0.19,0.51 0.28,1.07 0.28,1.69 0,0.62 -0.09,1.18 -0.28,1.69 -0.19,0.51 -0.46,0.95 -0.82,1.31 -0.36,0.37 -0.8,0.65 -1.32,0.86 -0.52,0.21 -1.11,0.31 -1.78,0.31 -0.66,0 -1.26,-0.1 -1.78,-0.31 -0.52,-0.21 -0.96,-0.49 -1.32,-0.86 -0.36,-0.37 -0.64,-0.8 -0.82,-1.31 -0.19,-0.51 -0.28,-1.07 -0.28,-1.69zm2.45 0c0,0.91 0.15,1.63 0.46,2.14 0.31,0.51 0.74,0.77 1.29,0.77 0.55,0 0.98,-0.26 1.28,-0.77 0.31,-0.52 0.46,-1.23 0.46,-2.14 0,-0.91 -0.15,-1.63 -0.46,-2.14 -0.31,-0.52 -0.74,-0.77 -1.28,-0.77 -0.55,0 -0.98,0.26 -1.29,0.77 -0.31,0.51 -0.46,1.23 -0.46,2.14z"/>
   <ellipse class="fil3" cx="40.79" cy="35.11" rx="13" ry="11.49"/>
   <circle class="fil0" transform="matrix(0.206738 0.00574355 0.0496078 0.215333 40.7912 35.1143)" r="39.9"/>
   <rect class="fil3" x="24.41" y="33.45" width="32.76" height="3.32" rx="1.66" ry="1.66"/>
  </g>
 </g>
</svg>
