<?xml version="1.0" encoding="UTF-8"?>
<!DOCTYPE svg PUBLIC "-//W3C//DTD SVG 1.1//EN" "http://www.w3.org/Graphics/SVG/1.1/DTD/svg11.dtd">
<!-- Creator: CorelDRAW (评估版) -->
<svg xmlns="http://www.w3.org/2000/svg" xml:space="preserve" width="38.1923mm" height="38.1923mm" version="1.1" style="shape-rendering:geometricPrecision; text-rendering:geometricPrecision; image-rendering:optimizeQuality; fill-rule:evenodd; clip-rule:evenodd"
viewBox="0 0 75.13 75.13"
 xmlns:xlink="http://www.w3.org/1999/xlink"
 xmlns:xodm="http://www.corel.com/coreldraw/odm/2003">
 <defs>
  <style type="text/css">
   <![CDATA[
    .fil2 {fill:#63AFA8}
    .fil1 {fill:#F0ECDC}
    .fil0 {fill:#FFF9EF}
    .fil3 {fill:#A4A678;fill-rule:nonzero}
   ]]>
  </style>
 </defs>
 <g id="图层_x0020_1">
  <metadata id="CorelCorpID_0Corel-Layer"/>
  <g id="_1503618938160">
   <g>
    <circle class="fil0" cx="37.57" cy="37.57" r="37.57"/>
    <path class="fil1" d="M37.57 4.63c18.19,0 32.94,14.75 32.94,32.94 0,18.19 -14.75,32.94 -32.94,32.94 -18.19,0 -32.94,-14.75 -32.94,-32.94 0,-18.19 14.75,-32.94 32.94,-32.94zm3.74 5.35c12.38,1.66 22.17,11.46 23.84,23.84 1.38,1.77 1.96,2.15 4.88,3.74 -2.92,1.6 -3.5,1.98 -4.88,3.74 -1.66,12.38 -11.46,22.17 -23.84,23.84 -1.77,1.38 -2.15,1.96 -3.74,4.88 -1.6,-2.92 -1.98,-3.5 -3.74,-4.88 -12.38,-1.66 -22.17,-11.46 -23.84,-23.84 -1.38,-1.77 -1.96,-2.15 -4.88,-3.74 2.92,-1.6 3.5,-1.98 4.88,-3.74 1.66,-12.38 11.46,-22.17 23.84,-23.84 1.77,-1.38 2.15,-1.96 3.74,-4.88 1.6,2.92 1.98,3.5 3.74,4.88z"/>
   </g>
   <ellipse class="fil2" cx="37.57" cy="33.11" rx="12.21" ry="10.79"/>
   <circle class="fil0" transform="matrix(0.206738 0.00574355 0.0496078 0.215333 37.5674 33.1105)" r="37.48"/>
   <rect class="fil2" x="22.18" y="41.88" width="30.77" height="3.12" rx="1.56" ry="1.56"/>
   <rect class="fil2" x="22.18" y="21.08" width="30.77" height="3.12" rx="1.56" ry="1.56"/>
   <path class="fil3" d="M35.5 51.24c0.9,0.14 1.46,0.8 1.67,2.01l0 0.11c-0.01,0.1 -0.06,0.15 -0.16,0.15l-1.32 0c-0.07,0 -0.11,-0.03 -0.11,-0.1l0 -0.42c-0.05,-0.6 -0.32,-0.88 -0.81,-0.85 -0.62,0.16 -0.91,0.91 -0.85,2.24 -0.02,0.07 0.01,0.1 0.09,0.09l2.51 0c0.07,0.01 0.11,0.04 0.11,0.1 -0.05,0.52 -0.31,0.84 -0.8,0.98l-1.91 0.01 0 5.07c0,1.01 -0.69,1.65 -2.06,1.91 -0.08,-0.03 -0.11,-0.08 -0.09,-0.16l0 -6.82 -1.3 0c-0.09,0 -0.14,-0.05 -0.14,-0.16l0 -0.83c0.02,-0.07 0.07,-0.12 0.16,-0.15l1.27 0c0.21,-1.41 0.66,-2.33 1.35,-2.75 0.69,-0.42 1.49,-0.56 2.39,-0.43zm4.7 9.93c0.34,0 0.63,-0.1 0.85,-0.29 0.23,-0.19 0.34,-0.45 0.34,-0.78l0 -1.49c-0.16,0.03 -0.34,0.07 -0.53,0.12 -0.19,0.05 -0.37,0.12 -0.54,0.19 -0.34,0.13 -0.6,0.31 -0.77,0.54 -0.17,0.24 -0.25,0.5 -0.25,0.79 0,0.3 0.08,0.53 0.24,0.68 0.16,0.16 0.38,0.24 0.66,0.24zm0.41 -6.52c1.47,0 2.41,0.56 2.82,1.68 0.09,0.24 0.14,0.53 0.16,0.88l0 2.33c0,1.47 0.26,2.3 0.79,2.47 0.09,0 0.14,0.03 0.14,0.09l0 0.05c0,0.05 -0.05,0.11 -0.14,0.16l-1.15 0c-0.68,0 -1.13,-0.35 -1.37,-1.06l0 -0.04 -0.05 0c-0.42,0.77 -1.09,1.15 -2.03,1.15 -1.72,-0.01 -2.58,-0.7 -2.58,-2.06 0.01,-1.44 1.41,-2.36 4.19,-2.78l0 -0.53c-0.01,-0.78 -0.32,-1.2 -0.94,-1.26l-0.26 0c-0.66,0.12 -1.01,0.55 -1.04,1.3 0,0.15 -0.05,0.23 -0.16,0.22l-1.32 0c-0.07,0.01 -0.12,-0.04 -0.15,-0.15l0 -0.27c0,-1 0.63,-1.69 1.89,-2.05 0.35,-0.1 0.76,-0.15 1.21,-0.15z"/>
  </g>
 </g>
</svg>
