<?xml version="1.0" encoding="UTF-8"?>
<!DOCTYPE svg PUBLIC "-//W3C//DTD SVG 1.1//EN" "http://www.w3.org/Graphics/SVG/1.1/DTD/svg11.dtd">
<!-- Creator: CorelDRAW (评估版) -->
<svg xmlns="http://www.w3.org/2000/svg" xml:space="preserve" width="38.1923mm" height="38.1923mm" version="1.1" style="shape-rendering:geometricPrecision; text-rendering:geometricPrecision; image-rendering:optimizeQuality; fill-rule:evenodd; clip-rule:evenodd"
viewBox="0 0 75.04 75.04"
 xmlns:xlink="http://www.w3.org/1999/xlink"
 xmlns:xodm="http://www.corel.com/coreldraw/odm/2003">
 <defs>
  <style type="text/css">
   <![CDATA[
    .fil2 {fill:#63AFA8}
    .fil1 {fill:#F0ECDC}
    .fil0 {fill:#FFF9EF}
    .fil3 {fill:#A4A678;fill-rule:nonzero}
   ]]>
  </style>
 </defs>
 <g id="图层_x0020_1">
  <metadata id="CorelCorpID_0Corel-Layer"/>
  <g id="_1502978544352">
   <g>
    <circle class="fil0" cx="37.52" cy="37.52" r="37.52"/>
    <path class="fil1" d="M37.52 4.63c18.17,0 32.89,14.73 32.89,32.89 0,18.17 -14.73,32.89 -32.89,32.89 -18.17,0 -32.89,-14.73 -32.89,-32.89 0,-18.17 14.73,-32.89 32.89,-32.89zm3.74 5.35c12.36,1.66 22.15,11.45 23.81,23.81 1.38,1.76 1.96,2.14 4.88,3.74 -2.92,1.6 -3.5,1.98 -4.88,3.74 -1.66,12.36 -11.45,22.15 -23.81,23.81 -1.76,1.38 -2.14,1.96 -3.74,4.88 -1.6,-2.92 -1.98,-3.5 -3.74,-4.88 -12.36,-1.66 -22.15,-11.45 -23.81,-23.81 -1.38,-1.76 -1.96,-2.14 -4.88,-3.74 2.92,-1.6 3.5,-1.98 4.88,-3.74 1.66,-12.36 11.45,-22.15 23.81,-23.81 1.76,-1.38 2.14,-1.96 3.74,-4.88 1.6,2.92 1.98,3.5 3.74,4.88z"/>
   </g>
   <g>
    <ellipse class="fil2" cx="37.16" cy="29.46" rx="12.2" ry="10.77"/>
    <circle class="fil0" transform="matrix(0.206738 0.00574355 0.0496078 0.215333 37.1553 29.4601)" r="37.43"/>
    <rect class="fil2" x="21.79" y="27.9" width="30.74" height="3.12" rx="1.56" ry="1.56"/>
    <rect class="fil2" x="21.79" y="38.22" width="30.74" height="3.12" rx="1.56" ry="1.56"/>
    <rect class="fil2" x="21.79" y="45.5" width="30.74" height="3.12" rx="1.56" ry="1.56"/>
    <rect class="fil2" x="21.79" y="17.44" width="30.74" height="3.12" rx="1.56" ry="1.56"/>
   </g>
   <path class="fil3" d="M35.11 51.99c0.12,0 0.18,0.06 0.19,0.18l0 2.33 2.18 0c0.07,0.01 0.11,0.05 0.11,0.11 -0.05,0.29 -0.18,0.52 -0.37,0.69 -0.19,0.17 -0.44,0.26 -0.75,0.27l-1.16 0.01 0 4.2c0,0.71 0.31,1.07 0.92,1.07 0.42,-0.02 0.77,-0.1 1.06,-0.26 0.08,-0.04 0.14,-0.04 0.19,0.03 0.08,0.14 0.14,0.24 0.16,0.31 -0.06,0.29 -0.3,0.54 -0.7,0.76 -0.41,0.22 -0.93,0.33 -1.57,0.33 -1.22,0 -1.93,-0.36 -2.14,-1.08 -0.07,-0.22 -0.1,-0.53 -0.09,-0.95l0 -4.42 -0.87 0c-0.14,0 -0.2,-0.07 -0.2,-0.2l0 -0.72c0,-0.08 0.05,-0.13 0.15,-0.15 0.61,0 0.92,0 0.92,0l0.01 -0.83c0.03,-0.34 -0.1,-0.52 -0.39,-0.53 -0.01,-0.23 0.08,-0.37 0.27,-0.43l2.1 -0.72zm3.59 0.05c0,0.31 0.09,0.58 0.28,0.81 0.25,0.26 0.56,0.39 0.93,0.39 0.35,0 0.65,-0.13 0.89,-0.39 0.22,-0.23 0.33,-0.51 0.34,-0.81 -0.01,-0.32 -0.12,-0.59 -0.34,-0.83 -0.24,-0.27 -0.54,-0.41 -0.89,-0.42 -0.33,0.01 -0.6,0.12 -0.84,0.34 -0.25,0.24 -0.38,0.55 -0.38,0.91zm2.36 2.28c0.07,0.03 0.11,0.07 0.11,0.12l0 6.24c0.03,0.85 -0.59,1.27 -1.86,1.27 -0.31,-0.01 -0.46,-0.06 -0.46,-0.16l0 -4.88c0,-0.84 -0.33,-1.41 -0.98,-1.72 -0.02,-0.17 0.08,-0.27 0.28,-0.3 1.66,-0.36 2.63,-0.56 2.9,-0.58z"/>
  </g>
 </g>
</svg>
